<?xml version="1.0" encoding="UTF-8"?>
<svg xmlns="http://www.w3.org/2000/svg" xmlns:xlink="http://www.w3.org/1999/xlink" width="180px" height="180px" viewBox="0 0 180 181" version="1.1">
<g id="surface1">
<path style=" stroke:none;fill-rule:nonzero;fill:rgb(1.176471%,14.509805%,28.627452%);fill-opacity:1;" d="M 0 0 C 59.398438 0 118.800781 0 180 0 C 180 59.730469 180 119.460938 180 181 C 120.601562 181 61.199219 181 0 181 C 0 121.269531 0 61.539062 0 0 Z M 0 0 "/>
<path style=" stroke:none;fill-rule:nonzero;fill:rgb(96.078432%,97.254902%,98.039216%);fill-opacity:1;" d="M 106.328125 70.429688 C 110.027344 73.609375 111.816406 77.75 112.40625 82.546875 C 112.765625 87.769531 111.632812 91.929688 110.125 96.9375 C 112.632812 98.1875 115.140625 99.4375 117.722656 100.722656 C 116.941406 104.621094 116.605469 105.230469 113.875 107.777344 C 113.320312 108.304688 112.761719 108.832031 112.1875 109.375 C 111.757812 109.769531 111.328125 110.164062 110.886719 110.570312 C 112.164062 114.515625 114.558594 117.664062 116.914062 121.03125 C 117.351562 121.65625 117.785156 122.285156 118.234375 122.933594 C 120 125.484375 121.777344 128.03125 123.558594 130.574219 C 124.359375 131.71875 125.160156 132.863281 125.957031 134.007812 C 126.6875 135.058594 127.425781 136.105469 128.164062 137.148438 C 130.632812 140.691406 130.632812 140.691406 130.632812 142.375 C 112.480469 145.570312 112.480469 145.570312 104.808594 142.375 C 97.128906 136.917969 91.035156 125.40625 88.101562 116.628906 C 82.335938 116.628906 76.570312 116.628906 70.632812 116.628906 C 70.640625 118.421875 70.652344 120.21875 70.660156 122.066406 C 70.664062 123.800781 70.671875 125.53125 70.675781 127.261719 C 70.679688 128.46875 70.683594 129.675781 70.691406 130.882812 C 70.699219 132.617188 70.703125 134.347656 70.707031 136.078125 C 70.710938 136.621094 70.714844 137.164062 70.71875 137.722656 C 70.71875 139.023438 70.679688 140.320312 70.632812 141.621094 C 68.621094 143.625 62.804688 142.554688 60.09375 142.566406 C 59.175781 142.582031 58.257812 142.597656 57.308594 142.613281 C 56.429688 142.617188 55.550781 142.621094 54.640625 142.625 C 53.832031 142.632812 53.019531 142.640625 52.1875 142.648438 C 50.125 142.375 50.125 142.375 48.875 141.519531 C 47.386719 139.46875 47.574219 137.914062 47.589844 135.398438 C 47.589844 134.425781 47.589844 133.457031 47.589844 132.457031 C 47.601562 131.398438 47.613281 130.339844 47.625 129.28125 C 47.628906 128.195312 47.632812 127.113281 47.636719 126.03125 C 47.644531 123.179688 47.667969 120.332031 47.691406 117.480469 C 47.714844 114.570312 47.726562 111.664062 47.738281 108.753906 C 47.761719 103.046875 47.800781 97.34375 47.847656 91.636719 C 48.347656 91.636719 48.851562 91.636719 49.367188 91.636719 C 50.257812 93.621094 51.140625 95.609375 52.023438 97.601562 C 52.277344 98.164062 52.53125 98.730469 52.792969 99.3125 C 53.152344 100.125 53.152344 100.125 53.519531 100.953125 C 53.742188 101.453125 53.964844 101.953125 54.195312 102.46875 C 54.683594 103.753906 54.683594 103.753906 54.683594 105.269531 C 55.6875 105.519531 56.6875 105.769531 57.722656 106.023438 C 57.722656 106.523438 57.722656 107.023438 57.722656 107.539062 C 59.988281 107.292969 61.1875 107.125 62.796875 105.457031 C 63.164062 104.894531 63.535156 104.332031 63.917969 103.753906 C 64.332031 103.144531 64.75 102.535156 65.175781 101.90625 C 65.597656 101.265625 66.019531 100.625 66.457031 99.964844 C 67.292969 98.699219 68.136719 97.433594 68.996094 96.179688 C 69.363281 95.617188 69.734375 95.054688 70.113281 94.476562 C 71.753906 92.773438 72.855469 92.570312 75.191406 92.394531 C 78.109375 93.363281 78.632812 94.667969 80.21875 97.171875 C 81.480469 98.714844 82.429688 99.289062 84.304688 99.964844 C 85.554688 100.015625 86.804688 100.03125 88.054688 100.015625 C 90.566406 100.203125 91.539062 100.332031 93.261719 102.207031 C 94.289062 103.980469 95.125 105.570312 95.695312 107.539062 C 95.445312 108.289062 95.195312 109.039062 94.9375 109.8125 C 92.679688 110.1875 92.679688 110.1875 90.378906 110.570312 C 90.378906 110.820312 90.378906 111.070312 90.378906 111.328125 C 90.976562 111.390625 91.570312 111.453125 92.183594 111.515625 C 92.839844 111.703125 93.5 111.890625 94.175781 112.082031 C 94.414062 112.566406 94.648438 113.050781 94.890625 113.550781 C 95.15625 114.066406 95.421875 114.582031 95.695312 115.113281 C 96.386719 115.289062 97.082031 115.46875 97.792969 115.652344 C 100.984375 116.917969 102.230469 118.878906 103.957031 121.691406 C 104.261719 122.148438 104.566406 122.601562 104.882812 123.070312 C 106.945312 126.332031 107.335938 128.597656 107.089844 132.53125 C 107.9375 133.550781 107.9375 133.550781 110.125 133.382812 C 112.316406 133.550781 112.316406 133.550781 113.164062 132.53125 C 113.195312 131.015625 113.195312 129.5 113.164062 127.988281 C 112.488281 127.84375 111.8125 127.695312 111.117188 127.546875 C 107.941406 126.1875 106.648438 124.246094 104.90625 121.410156 C 104.597656 120.953125 104.292969 120.5 103.980469 120.03125 C 101.90625 116.761719 101.550781 114.507812 101.773438 110.570312 C 100.382812 108.589844 99.5625 108.320312 97.214844 107.539062 C 96.328125 106.027344 96.328125 106.027344 95.554688 104.179688 C 95.292969 103.570312 95.03125 102.960938 94.761719 102.335938 C 94.175781 100.722656 94.175781 100.722656 94.175781 99.210938 C 94.867188 98.757812 95.554688 98.304688 96.265625 97.835938 C 99.585938 95.609375 101.734375 93.03125 103.292969 89.363281 C 103.894531 84.621094 103.234375 81.472656 101.011719 77.246094 C 101.730469 74.292969 104.171875 72.46875 106.328125 70.429688 Z M 106.328125 70.429688 "/>
<path style=" stroke:none;fill-rule:nonzero;fill:rgb(96.470588%,97.647059%,98.039216%);fill-opacity:1;" d="M 53.730469 39.964844 C 54.828125 39.964844 54.828125 39.964844 55.941406 39.964844 C 56.730469 39.972656 57.515625 39.980469 58.324219 39.988281 C 59.53125 39.992188 59.53125 39.992188 60.765625 39.996094 C 63.34375 40.003906 65.917969 40.023438 68.496094 40.042969 C 70.242188 40.050781 71.988281 40.058594 73.734375 40.0625 C 78.015625 40.082031 82.300781 40.105469 86.582031 40.136719 C 86.582031 44.386719 86.582031 48.636719 86.582031 53.011719 C 78.5625 53.011719 70.542969 53.011719 62.277344 53.011719 C 62.027344 51.261719 61.777344 49.515625 61.519531 47.710938 C 58.925781 47.585938 58.925781 47.585938 56.203125 47.710938 C 55.703125 48.210938 55.199219 48.710938 54.683594 49.226562 C 54.632812 51.128906 54.632812 51.128906 55.441406 53.011719 C 56.078125 53.285156 56.714844 53.554688 57.371094 53.835938 C 59.242188 55.285156 59.242188 55.285156 59.550781 56.742188 C 59.613281 58.589844 59.570312 60.398438 59.476562 62.242188 C 59.460938 62.882812 59.445312 63.523438 59.425781 64.179688 C 59.382812 65.761719 59.3125 67.339844 59.242188 68.917969 C 58.113281 69.292969 58.113281 69.292969 56.960938 69.671875 C 56.3125 71.835938 55.792969 73.90625 55.347656 76.109375 C 53.996094 82.476562 53.996094 82.476562 53.164062 83.304688 C 51.394531 83.335938 49.621094 83.335938 47.847656 83.304688 C 47.789062 77.402344 47.75 71.496094 47.722656 65.59375 C 47.710938 63.582031 47.695312 61.574219 47.675781 59.5625 C 47.648438 56.679688 47.636719 53.796875 47.625 50.914062 C 47.613281 50.007812 47.601562 49.105469 47.589844 48.175781 C 47.589844 47.339844 47.589844 46.507812 47.589844 45.648438 C 47.585938 44.910156 47.578125 44.175781 47.574219 43.417969 C 47.664062 42.835938 47.753906 42.253906 47.847656 41.652344 C 50.296875 40.027344 50.917969 39.953125 53.730469 39.964844 Z M 53.730469 39.964844 "/>
<path style=" stroke:none;fill-rule:nonzero;fill:rgb(10.196079%,18.039216%,27.058825%);fill-opacity:1;" d="M 72.152344 92.394531 C 74.621094 92.394531 74.621094 92.394531 77.46875 93.152344 C 78.632812 94.414062 79.46875 95.683594 80.324219 97.171875 C 81.507812 98.78125 82.425781 99.292969 84.304688 99.964844 C 85.554688 100.015625 86.804688 100.03125 88.054688 100.015625 C 90.566406 100.203125 91.539062 100.332031 93.261719 102.207031 C 94.289062 103.980469 95.125 105.570312 95.695312 107.539062 C 95.320312 108.664062 95.320312 108.664062 94.9375 109.8125 C 89.75 111.1875 86.390625 111.371094 81.265625 109.8125 C 79.144531 109.621094 79.144531 109.621094 77.46875 109.8125 C 77.21875 110.0625 76.96875 110.3125 76.707031 110.570312 C 75.445312 110.601562 74.175781 110.601562 72.910156 110.570312 C 72.75 111.054688 72.585938 111.542969 72.417969 112.042969 C 71.535156 114.03125 70.589844 115.695312 69.417969 117.519531 C 69.042969 118.101562 68.671875 118.679688 68.289062 119.273438 C 67.511719 120.476562 66.726562 121.671875 65.933594 122.859375 C 63.597656 126.527344 62.640625 128.820312 63.039062 133.289062 C 62.230469 134.804688 62.230469 134.804688 60.757812 135.5625 C 57.957031 135.324219 57.957031 135.324219 55.441406 134.804688 C 54.921875 132.292969 54.921875 132.292969 54.683594 129.503906 C 55.050781 129.15625 55.414062 128.8125 55.789062 128.457031 C 57.480469 126.683594 57.246094 125.382812 57.238281 122.972656 C 57.238281 121.722656 57.238281 121.722656 57.238281 120.449219 C 57.222656 119.578125 57.210938 118.707031 57.199219 117.8125 C 57.203125 116.945312 57.203125 116.074219 57.207031 115.183594 C 57.289062 110 57.289062 110 55.441406 105.269531 C 56.195312 105.519531 56.945312 105.769531 57.722656 106.023438 C 57.722656 106.523438 57.722656 107.023438 57.722656 107.539062 C 60 107.292969 61.199219 107.101562 62.84375 105.457031 C 63.234375 104.894531 63.621094 104.332031 64.023438 103.753906 C 64.453125 103.144531 64.882812 102.535156 65.324219 101.90625 C 65.761719 101.265625 66.195312 100.625 66.644531 99.964844 C 67.527344 98.703125 68.410156 97.441406 69.292969 96.179688 C 69.871094 95.335938 69.871094 95.335938 70.460938 94.476562 C 71.390625 93.152344 71.390625 93.152344 72.152344 92.394531 Z M 72.152344 92.394531 "/>
<path style=" stroke:none;fill-rule:nonzero;fill:rgb(28.235295%,54.11765%,74.901962%);fill-opacity:1;" d="M 122.277344 55.285156 C 127.128906 57.273438 129.394531 62.390625 131.535156 66.929688 C 136.734375 79.511719 136.320312 91.429688 131.097656 104.027344 C 128.941406 108.570312 126.515625 112.238281 123.039062 115.871094 C 120.5625 115.34375 119.398438 114.765625 117.722656 112.839844 C 118.675781 110.238281 119.78125 108.160156 121.425781 105.929688 C 124.015625 102.167969 125.449219 98.234375 126.835938 93.90625 C 127.085938 93.15625 127.335938 92.410156 127.59375 91.636719 C 128.308594 80.292969 127.050781 71.816406 120.222656 62.382812 C 119.242188 60.585938 119.242188 60.585938 119.394531 58.917969 C 120.101562 57.332031 120.972656 56.417969 122.277344 55.285156 Z M 122.277344 55.285156 "/>
<path style=" stroke:none;fill-rule:nonzero;fill:rgb(28.235295%,55.686277%,76.47059%);fill-opacity:1;" d="M 60.757812 53.769531 C 63.824219 54.949219 65.375 56.933594 67.40625 59.449219 C 68.011719 60.191406 68.617188 60.933594 69.246094 61.699219 C 70.632812 63.613281 70.632812 63.613281 70.632812 65.128906 C 71.496094 65.238281 72.355469 65.347656 73.242188 65.460938 C 75.949219 65.886719 75.949219 65.886719 76.707031 66.644531 C 76.722656 67.410156 76.738281 68.175781 76.757812 68.964844 C 77.242188 72.453125 79.171875 74.496094 81.679688 76.855469 C 84.480469 78.582031 86.804688 78.222656 90 77.996094 C 91.898438 78.003906 91.898438 78.003906 94.320312 79.425781 C 96.265625 82.765625 96.558594 85.59375 95.695312 89.363281 C 94.382812 91.503906 93.488281 91.894531 91.140625 93.152344 C 87.925781 93.84375 85.648438 93.523438 82.832031 91.730469 C 80.367188 89.199219 80.417969 87.609375 80.40625 84.117188 C 80.507812 82.546875 80.507812 82.546875 81.035156 81.011719 C 81.445312 79.457031 81.445312 79.457031 80.363281 78.117188 C 77.183594 75.015625 74.96875 73.636719 70.632812 72.703125 C 70.132812 72.203125 69.628906 71.703125 69.113281 71.1875 C 69.160156 70.371094 69.203125 69.554688 69.25 68.710938 C 69.074219 65.074219 67.964844 64.105469 65.410156 61.578125 C 61.121094 57.273438 61.121094 57.273438 60 54.527344 C 60.25 54.277344 60.5 54.027344 60.757812 53.769531 Z M 60.757812 53.769531 "/>
<path style=" stroke:none;fill-rule:nonzero;fill:rgb(96.078432%,97.647059%,98.431373%);fill-opacity:1;" d="M 75.191406 92.394531 C 76.484375 93.71875 76.484375 93.71875 77.660156 95.421875 C 78.054688 95.984375 78.449219 96.546875 78.855469 97.125 C 79.152344 97.5625 79.445312 98 79.746094 98.453125 C 77.558594 101.644531 75.917969 102.816406 72.152344 103.753906 C 71.988281 104.761719 71.988281 104.761719 71.820312 105.789062 C 71.679688 106.617188 71.539062 107.445312 71.390625 108.296875 C 71.300781 108.90625 71.207031 109.511719 71.113281 110.140625 C 70.589844 112.257812 69.832031 113.605469 68.617188 115.410156 C 68.214844 116.007812 67.816406 116.609375 67.402344 117.226562 C 66.769531 118.148438 66.769531 118.148438 66.125 119.089844 C 65.703125 119.714844 65.285156 120.34375 64.855469 120.988281 C 61.726562 125.613281 61.726562 125.613281 60 126.472656 C 58.617188 109.101562 58.617188 109.101562 62.484375 103.804688 C 64.109375 101.929688 65.828125 100.195312 67.59375 98.453125 C 68.472656 97.253906 69.328125 96.039062 70.160156 94.808594 C 71.871094 92.269531 71.796875 92.394531 75.191406 92.394531 Z M 75.191406 92.394531 "/>
<path style=" stroke:none;fill-rule:nonzero;fill:rgb(29.411766%,54.901963%,74.901962%);fill-opacity:1;" d="M 114.683594 62.859375 C 119.226562 66.609375 121.203125 71.757812 123.039062 77.246094 C 123.5 84.757812 123.8125 91.695312 120 98.453125 C 115.632812 97.222656 115.632812 97.222656 113.925781 94.664062 C 114.292969 93.488281 114.660156 92.3125 115.039062 91.140625 C 116.601562 84.261719 115.855469 77.335938 112.40625 71.1875 C 111.980469 70.667969 111.554688 70.144531 111.113281 69.609375 C 110.789062 69.128906 110.460938 68.652344 110.125 68.160156 C 111.058594 65.367188 112.359375 64.582031 114.683594 62.859375 Z M 114.683594 62.859375 "/>
<path style=" stroke:none;fill-rule:nonzero;fill:rgb(26.274511%,49.803922%,68.627453%);fill-opacity:1;" d="M 58.480469 72.703125 C 59.484375 72.703125 60.484375 72.703125 61.519531 72.703125 C 61.835938 74.164062 61.835938 74.164062 62.15625 75.660156 C 62.433594 76.929688 62.710938 78.199219 62.992188 79.472656 C 63.128906 80.117188 63.265625 80.757812 63.410156 81.421875 C 63.546875 82.035156 63.679688 82.648438 63.816406 83.277344 C 64.003906 84.128906 64.003906 84.128906 64.191406 84.996094 C 64.441406 86.34375 64.441406 86.34375 65.316406 87.09375 C 65.566406 86.59375 65.816406 86.09375 66.074219 85.578125 C 69.585938 85.578125 73.09375 85.578125 76.707031 85.578125 C 76.707031 86.328125 76.707031 87.078125 76.707031 87.847656 C 73.953125 87.847656 71.195312 87.847656 68.355469 87.847656 C 67.996094 89.066406 67.632812 90.285156 67.261719 91.542969 C 66.171875 95.234375 66.171875 95.234375 65.316406 96.9375 C 64.566406 96.6875 63.8125 96.4375 63.039062 96.179688 C 62.65625 94.351562 62.277344 92.519531 61.898438 90.6875 C 61.789062 90.171875 61.679688 89.65625 61.570312 89.125 C 61.054688 86.601562 60.757812 84.378906 60.757812 81.789062 C 60.257812 81.789062 59.757812 81.789062 59.242188 81.789062 C 59.203125 82.421875 59.167969 83.054688 59.128906 83.703125 C 58.789062 88.773438 58.21875 93.527344 56.960938 98.453125 C 56.210938 98.453125 55.457031 98.453125 54.683594 98.453125 C 54.175781 97.097656 53.667969 95.738281 53.164062 94.382812 C 52.882812 93.625 52.601562 92.871094 52.308594 92.089844 C 51.644531 90.121094 51.644531 90.121094 51.644531 88.605469 C 47.886719 88.605469 44.125 88.605469 40.253906 88.605469 C 40.253906 87.855469 40.253906 87.105469 40.253906 86.335938 C 42.5 86.273438 44.746094 86.226562 46.992188 86.191406 C 47.632812 86.171875 48.273438 86.15625 48.929688 86.136719 C 49.542969 86.128906 50.15625 86.121094 50.785156 86.113281 C 51.632812 86.09375 51.632812 86.09375 52.496094 86.078125 C 52.96875 86.160156 53.4375 86.246094 53.925781 86.335938 C 54.425781 87.085938 54.925781 87.835938 55.441406 88.605469 C 56.445312 83.359375 57.449219 78.109375 58.480469 72.703125 Z M 58.480469 72.703125 "/>
<path style=" stroke:none;fill-rule:nonzero;fill:rgb(27.843139%,53.333336%,73.725492%);fill-opacity:1;" d="M 89.621094 40.136719 C 101.691406 39.691406 111.398438 44.09375 120.757812 51.496094 C 120.617188 52.871094 120.617188 52.871094 120 54.527344 C 118.054688 55.851562 118.054688 55.851562 116.203125 56.800781 C 115.742188 56.453125 115.28125 56.105469 114.808594 55.746094 C 106.851562 49.933594 99.160156 47.871094 89.621094 46.195312 C 89.621094 44.199219 89.621094 42.199219 89.621094 40.136719 Z M 89.621094 40.136719 "/>
<path style=" stroke:none;fill-rule:nonzero;fill:rgb(8.627451%,16.470589%,25.490198%);fill-opacity:1;" d="M 84.304688 99.964844 C 87.5625 99.964844 90.820312 99.964844 94.175781 99.964844 C 97.214844 105.835938 97.214844 105.835938 97.214844 107.539062 C 97.898438 107.65625 97.898438 107.65625 98.589844 107.777344 C 100.601562 108.40625 101.355469 108.8125 102.53125 110.570312 C 102.488281 111.375 102.445312 112.179688 102.402344 113.007812 C 102.558594 116.472656 103.535156 117.878906 105.570312 120.652344 C 108.609375 124.84375 108.609375 124.84375 108.609375 126.472656 C 109.34375 126.582031 110.078125 126.691406 110.839844 126.804688 C 113.164062 127.230469 113.164062 127.230469 113.925781 127.988281 C 114.066406 130.210938 114.066406 130.210938 113.925781 132.53125 C 112.40625 134.046875 112.40625 134.046875 110.125 134.234375 C 107.847656 134.046875 107.847656 134.046875 106.328125 132.53125 C 106.363281 131.738281 106.394531 130.949219 106.429688 130.132812 C 106.304688 126.496094 105.179688 124.644531 103.195312 121.691406 C 102.910156 121.222656 102.621094 120.753906 102.324219 120.269531 C 100.238281 117.078125 98.582031 116.058594 94.9375 115.113281 C 94.273438 113.503906 94.273438 113.503906 94.175781 112.082031 C 92.925781 112.082031 91.671875 112.082031 90.378906 112.082031 C 90.378906 111.332031 90.378906 110.585938 90.378906 109.8125 C 91.882812 109.5625 93.386719 109.3125 94.9375 109.054688 C 93.773438 105.101562 93.773438 105.101562 91.898438 101.480469 C 90.0625 100.949219 90.0625 100.949219 88.007812 100.914062 C 87.316406 100.871094 86.625 100.828125 85.910156 100.78125 C 85.382812 100.761719 84.851562 100.742188 84.304688 100.722656 C 84.304688 100.472656 84.304688 100.222656 84.304688 99.964844 Z M 84.304688 99.964844 "/>
<path style=" stroke:none;fill-rule:nonzero;fill:rgb(28.235295%,53.725493%,74.117649%);fill-opacity:1;" d="M 89.621094 51.496094 C 97.84375 50.804688 105.089844 53.796875 111.421875 58.96875 C 111.746094 59.25 112.070312 59.535156 112.40625 59.828125 C 111.371094 61.996094 110.394531 63.507812 108.609375 65.128906 C 106.042969 64.152344 103.664062 63.027344 101.25 61.722656 C 97.414062 59.769531 93.863281 58.980469 89.621094 58.3125 C 89.621094 56.066406 89.621094 53.816406 89.621094 51.496094 Z M 89.621094 51.496094 "/>
<path style=" stroke:none;fill-rule:nonzero;fill:rgb(94.509804%,96.470588%,97.254902%);fill-opacity:1;" d="M 83.753906 98.929688 C 91.082031 99.914062 91.082031 99.914062 93.464844 102.277344 C 94.488281 104.046875 95.238281 105.550781 95.695312 107.539062 C 95.445312 108.289062 95.195312 109.039062 94.9375 109.8125 C 89.5 109.28125 84.289062 108.0625 78.988281 106.78125 C 78.417969 105.125 78.417969 105.125 78.226562 102.996094 C 79.75 100.148438 80.496094 99.296875 83.753906 98.929688 Z M 83.753906 98.929688 "/>
<path style=" stroke:none;fill-rule:nonzero;fill:rgb(92.54902%,94.901961%,96.078432%);fill-opacity:1;" d="M 89.621094 62.859375 C 95.207031 62.097656 99.261719 64.765625 104.050781 67.402344 C 104.050781 70.429688 104.050781 70.429688 102.152344 72.511719 C 101.523438 73.074219 100.898438 73.636719 100.253906 74.21875 C 99.765625 74.015625 99.28125 73.8125 98.78125 73.601562 C 95.761719 72.433594 92.699219 71.4375 89.621094 70.429688 C 89.621094 67.933594 89.621094 65.433594 89.621094 62.859375 Z M 89.621094 62.859375 "/>
<path style=" stroke:none;fill-rule:nonzero;fill:rgb(95.686275%,97.647059%,98.431373%);fill-opacity:1;" d="M 60.757812 53.769531 C 63.824219 54.949219 65.375 56.933594 67.40625 59.449219 C 68.011719 60.191406 68.617188 60.933594 69.246094 61.699219 C 70.632812 63.613281 70.632812 63.613281 70.632812 65.128906 C 71.496094 65.238281 72.355469 65.347656 73.242188 65.460938 C 75.949219 65.886719 75.949219 65.886719 76.707031 66.644531 C 76.738281 67.425781 76.773438 68.207031 76.804688 69.011719 C 77.609375 72.570312 78.949219 73.734375 81.648438 76.050781 C 82.785156 77.246094 82.785156 77.246094 82.785156 79.519531 C 80.652344 78.652344 79.582031 77.828125 77.992188 76.109375 C 75.609375 73.902344 73.75 73.464844 70.632812 72.703125 C 70.132812 72.203125 69.628906 71.703125 69.113281 71.1875 C 69.160156 70.371094 69.203125 69.554688 69.25 68.710938 C 69.074219 65.074219 67.964844 64.105469 65.410156 61.578125 C 61.121094 57.273438 61.121094 57.273438 60 54.527344 C 60.25 54.277344 60.5 54.027344 60.757812 53.769531 Z M 60.757812 53.769531 "/>
<path style=" stroke:none;fill-rule:nonzero;fill:rgb(11.764706%,21.568628%,32.549021%);fill-opacity:1;" d="M 61.519531 47.710938 C 61.769531 49.460938 62.019531 51.210938 62.277344 53.011719 C 70.046875 53.011719 77.816406 53.011719 85.824219 53.011719 C 85.824219 53.261719 85.824219 53.511719 85.824219 53.769531 C 85.074219 53.789062 84.328125 53.808594 83.558594 53.828125 C 80.785156 53.898438 78.011719 53.972656 75.238281 54.050781 C 74.039062 54.085938 72.839844 54.117188 71.640625 54.148438 C 69.914062 54.191406 68.191406 54.238281 66.464844 54.289062 C 65.929688 54.300781 65.390625 54.3125 64.839844 54.324219 C 62.53125 54.394531 60.6875 54.550781 58.480469 55.285156 C 56.488281 54.433594 56.488281 54.433594 54.683594 53.011719 C 53.925781 51.121094 53.925781 51.121094 53.925781 49.226562 C 55.671875 45.960938 58.34375 47.054688 61.519531 47.710938 Z M 61.519531 47.710938 "/>
<path style=" stroke:none;fill-rule:nonzero;fill:rgb(4.313726%,13.725491%,24.313726%);fill-opacity:1;" d="M 58.480469 110.570312 C 58.730469 110.570312 58.980469 110.570312 59.242188 110.570312 C 59.242188 116.066406 59.242188 121.566406 59.242188 127.230469 C 59.992188 127.230469 60.746094 127.230469 61.519531 127.230469 C 63.15625 129.679688 63.394531 130.449219 63.039062 133.289062 C 62.230469 134.707031 62.230469 134.707031 60.757812 135.5625 C 57.957031 135.324219 57.957031 135.324219 55.441406 134.804688 C 54.96875 132.246094 54.96875 132.246094 54.683594 129.503906 C 55.183594 129.003906 55.6875 128.503906 56.203125 127.988281 C 56.953125 127.988281 57.707031 127.988281 58.480469 127.988281 C 58.480469 122.238281 58.480469 116.492188 58.480469 110.570312 Z M 58.480469 110.570312 "/>
<path style=" stroke:none;fill-rule:nonzero;fill:rgb(9.411765%,18.039216%,27.843139%);fill-opacity:1;" d="M 70.632812 116.628906 C 76.398438 116.628906 82.160156 116.628906 88.101562 116.628906 C 88.101562 117.128906 88.101562 117.628906 88.101562 118.140625 C 82.839844 118.140625 77.574219 118.140625 72.152344 118.140625 C 72.160156 119.765625 72.167969 121.386719 72.179688 123.058594 C 72.183594 124.628906 72.1875 126.195312 72.195312 127.765625 C 72.199219 128.859375 72.203125 129.949219 72.210938 131.039062 C 72.21875 132.609375 72.222656 134.175781 72.226562 135.742188 C 72.230469 136.6875 72.234375 137.632812 72.238281 138.605469 C 72.152344 140.863281 72.152344 140.863281 71.390625 142.375 C 70.890625 142.125 70.390625 141.875 69.875 141.621094 C 70.125 133.371094 70.375 125.125 70.632812 116.628906 Z M 70.632812 116.628906 "/>
<path style=" stroke:none;fill-rule:nonzero;fill:rgb(5.490196%,21.176471%,37.254903%);fill-opacity:1;" d="M 55.441406 71.945312 C 55.945312 72.945312 56.445312 73.945312 56.960938 74.976562 C 57.464844 75.226562 57.964844 75.476562 58.480469 75.730469 C 57.476562 80.730469 56.476562 85.730469 55.441406 90.878906 C 55.191406 90.878906 54.941406 90.878906 54.683594 90.878906 C 54.308594 89.003906 54.308594 89.003906 53.925781 87.09375 C 49.414062 86.84375 44.902344 86.59375 40.253906 86.335938 C 40.253906 86.085938 40.253906 85.835938 40.253906 85.578125 C 43.011719 85.328125 45.765625 85.078125 48.609375 84.820312 C 48.609375 84.570312 48.609375 84.320312 48.609375 84.0625 C 50.113281 84.0625 51.613281 84.0625 53.164062 84.0625 C 53.917969 80.0625 54.667969 76.066406 55.441406 71.945312 Z M 55.441406 71.945312 "/>
<path style=" stroke:none;fill-rule:nonzero;fill:rgb(28.235295%,53.725493%,73.725492%);fill-opacity:1;" d="M 58.480469 72.703125 C 59.484375 72.703125 60.484375 72.703125 61.519531 72.703125 C 62.664062 77.101562 63.203125 81.03125 63.039062 85.578125 C 62.535156 85.828125 62.035156 86.078125 61.519531 86.335938 C 61.269531 84.835938 61.019531 83.335938 60.757812 81.789062 C 60.257812 81.789062 59.757812 81.789062 59.242188 81.789062 C 59.242188 82.789062 59.242188 83.789062 59.242188 84.820312 C 58.488281 85.070312 57.738281 85.320312 56.960938 85.578125 C 56.796875 81.03125 57.335938 77.101562 58.480469 72.703125 Z M 58.480469 72.703125 "/>
<path style=" stroke:none;fill-rule:nonzero;fill:rgb(3.921569%,14.117648%,25.098041%);fill-opacity:1;" d="M 107.847656 125.714844 C 113.070312 127.136719 113.070312 127.136719 113.925781 127.988281 C 114.066406 130.210938 114.066406 130.210938 113.925781 132.53125 C 112.40625 134.046875 112.40625 134.046875 110.125 134.234375 C 107.847656 134.046875 107.847656 134.046875 106.328125 132.53125 C 106.066406 129.460938 106.101562 128.332031 107.847656 125.714844 Z M 107.847656 125.714844 "/>
<path style=" stroke:none;fill-rule:nonzero;fill:rgb(70.19608%,76.078433%,81.176472%);fill-opacity:1;" d="M 47.847656 91.636719 C 48.347656 91.636719 48.851562 91.636719 49.367188 91.636719 C 49.617188 92.636719 49.867188 93.636719 50.125 94.664062 C 49.625 94.664062 49.125 94.664062 48.609375 94.664062 C 48.609375 109.660156 48.609375 124.65625 48.609375 140.105469 C 48.355469 140.105469 48.105469 140.105469 47.847656 140.105469 C 47.847656 124.109375 47.847656 108.117188 47.847656 91.636719 Z M 47.847656 91.636719 "/>
<path style=" stroke:none;fill-rule:nonzero;fill:rgb(85.882354%,90.588236%,93.333334%);fill-opacity:1;" d="M 60.757812 53.769531 C 63.859375 54.945312 65.378906 56.988281 67.40625 59.542969 C 68.011719 60.304688 68.617188 61.0625 69.246094 61.847656 C 69.933594 62.722656 69.933594 62.722656 70.632812 63.613281 C 69.628906 63.863281 68.628906 64.113281 67.59375 64.371094 C 65.089844 61.375 62.582031 58.375 60 55.285156 C 60.25 54.785156 60.5 54.285156 60.757812 53.769531 Z M 60.757812 53.769531 "/>
<path style=" stroke:none;fill-rule:nonzero;fill:rgb(27.058825%,52.549022%,72.941178%);fill-opacity:1;" d="M 40.253906 86.335938 C 44.765625 86.335938 49.277344 86.335938 53.925781 86.335938 C 53.671875 87.085938 53.421875 87.835938 53.164062 88.605469 C 48.859375 88.605469 44.558594 88.605469 40.253906 88.605469 C 40.253906 87.855469 40.253906 87.105469 40.253906 86.335938 Z M 40.253906 86.335938 "/>
<path style=" stroke:none;fill-rule:nonzero;fill:rgb(92.941177%,97.254902%,98.823529%);fill-opacity:1;" d="M 69.875 115.871094 C 70.125 115.871094 70.375 115.871094 70.632812 115.871094 C 70.632812 124.367188 70.632812 132.863281 70.632812 141.621094 C 70.382812 141.621094 70.132812 141.621094 69.875 141.621094 C 69.621094 134.621094 69.371094 127.625 69.113281 120.414062 C 68.363281 120.914062 67.609375 121.414062 66.835938 121.929688 C 67.691406 119.679688 68.523438 117.890625 69.875 115.871094 Z M 69.875 115.871094 "/>
<path style=" stroke:none;fill-rule:nonzero;fill:rgb(9.803922%,17.254902%,25.882354%);fill-opacity:1;" d="M 55.441406 105.269531 C 56.195312 105.519531 56.945312 105.769531 57.722656 106.023438 C 57.722656 106.523438 57.722656 107.023438 57.722656 107.539062 C 58.722656 107.789062 59.726562 108.039062 60.757812 108.296875 C 60.007812 109.421875 60.007812 109.421875 59.242188 110.570312 C 58.960938 112.472656 58.960938 112.472656 58.925781 114.601562 C 58.898438 115.378906 58.867188 116.160156 58.835938 116.960938 C 58.800781 118.179688 58.800781 118.179688 58.765625 119.421875 C 58.738281 120.242188 58.707031 121.0625 58.675781 121.90625 C 58.605469 123.933594 58.539062 125.960938 58.480469 127.988281 C 57.980469 127.738281 57.476562 127.488281 56.960938 127.230469 C 56.96875 126.671875 56.976562 126.113281 56.984375 125.539062 C 57.019531 123.011719 57.039062 120.480469 57.058594 117.953125 C 57.070312 117.074219 57.082031 116.199219 57.09375 115.292969 C 57.101562 114.449219 57.105469 113.605469 57.109375 112.734375 C 57.117188 111.957031 57.125 111.179688 57.132812 110.378906 C 56.960938 108.28125 56.523438 107.050781 55.441406 105.269531 Z M 55.441406 105.269531 "/>
<path style=" stroke:none;fill-rule:nonzero;fill:rgb(29.019609%,54.11765%,73.333335%);fill-opacity:1;" d="M 66.835938 85.578125 C 70.09375 85.578125 73.351562 85.578125 76.707031 85.578125 C 76.707031 86.328125 76.707031 87.078125 76.707031 87.847656 C 73.449219 87.847656 70.191406 87.847656 66.835938 87.847656 C 66.835938 87.101562 66.835938 86.351562 66.835938 85.578125 Z M 66.835938 85.578125 "/>
<path style=" stroke:none;fill-rule:nonzero;fill:rgb(85.490197%,90.196079%,92.941177%);fill-opacity:1;" d="M 80.976562 75.171875 C 82.132812 76.625 82.476562 77.707031 82.785156 79.519531 C 80.625 78.640625 79.5625 77.804688 77.941406 76.0625 C 75.683594 73.972656 74.414062 73.671875 71.390625 73.460938 C 71.390625 73.210938 71.390625 72.960938 71.390625 72.703125 C 75.933594 71.410156 77.664062 72.1875 80.976562 75.171875 Z M 80.976562 75.171875 "/>
<path style=" stroke:none;fill-rule:nonzero;fill:rgb(77.254903%,81.960785%,85.490197%);fill-opacity:1;" d="M 85.824219 40.136719 C 86.074219 40.136719 86.324219 40.136719 86.582031 40.136719 C 86.582031 44.386719 86.582031 48.636719 86.582031 53.011719 C 81.820312 53.011719 77.058594 53.011719 72.152344 53.011719 C 72.152344 52.761719 72.152344 52.511719 72.152344 52.253906 C 73.019531 52.21875 73.890625 52.179688 74.785156 52.144531 C 75.914062 52.085938 77.046875 52.027344 78.179688 51.972656 C 78.753906 51.949219 79.328125 51.925781 79.917969 51.898438 C 81.382812 51.820312 82.84375 51.664062 84.304688 51.496094 C 85.378906 49.351562 85.328125 47.351562 85.492188 44.964844 C 85.554688 44.066406 85.617188 43.164062 85.683594 42.238281 C 85.753906 41.199219 85.753906 41.199219 85.824219 40.136719 Z M 85.824219 40.136719 "/>
<path style=" stroke:none;fill-rule:nonzero;fill:rgb(7.843138%,20%,33.333334%);fill-opacity:1;" d="M 55.441406 71.945312 C 55.945312 72.945312 56.445312 73.945312 56.960938 74.976562 C 57.464844 75.226562 57.964844 75.476562 58.480469 75.730469 C 58.230469 76.980469 57.980469 78.230469 57.722656 79.519531 C 57.21875 79.519531 56.71875 79.519531 56.203125 79.519531 C 56.203125 80.019531 56.203125 80.519531 56.203125 81.035156 C 55.703125 81.035156 55.199219 81.035156 54.683594 81.035156 C 54.933594 78.035156 55.183594 75.035156 55.441406 71.945312 Z M 55.441406 71.945312 "/>
<path style=" stroke:none;fill-rule:nonzero;fill:rgb(20.392157%,26.666668%,33.725491%);fill-opacity:1;" d="M 84.304688 99.964844 C 87.5625 99.964844 90.820312 99.964844 94.175781 99.964844 C 94.679688 101.214844 95.179688 102.464844 95.695312 103.753906 C 94.945312 104.003906 94.191406 104.253906 93.417969 104.511719 C 93.246094 104.023438 93.078125 103.535156 92.902344 103.03125 C 92.027344 101.296875 92.027344 101.296875 90.089844 101.019531 C 89.058594 100.96875 89.058594 100.96875 88.007812 100.914062 C 87.316406 100.871094 86.625 100.828125 85.910156 100.78125 C 85.382812 100.761719 84.851562 100.742188 84.304688 100.722656 C 84.304688 100.472656 84.304688 100.222656 84.304688 99.964844 Z M 84.304688 99.964844 "/>
<path style=" stroke:none;fill-rule:nonzero;fill:rgb(5.882353%,14.117648%,22.745098%);fill-opacity:1;" d="M 104.050781 69.671875 C 105.054688 69.921875 106.054688 70.171875 107.089844 70.429688 C 105.335938 72.179688 103.578125 73.929688 101.773438 75.730469 C 101.269531 75.480469 100.769531 75.230469 100.253906 74.976562 C 101.222656 72.820312 102.113281 71.085938 104.050781 69.671875 Z M 104.050781 69.671875 "/>
<path style=" stroke:none;fill-rule:nonzero;fill:rgb(20%,25.882354%,33.725491%);fill-opacity:1;" d="M 85.824219 108.296875 C 87.828125 108.546875 89.832031 108.796875 91.898438 109.054688 C 91.089844 110.238281 91.089844 110.238281 89.621094 111.328125 C 86.820312 111.089844 86.820312 111.089844 84.304688 110.570312 C 84.804688 110.320312 85.304688 110.070312 85.824219 109.8125 C 85.824219 109.3125 85.824219 108.8125 85.824219 108.296875 Z M 85.824219 108.296875 "/>
<path style=" stroke:none;fill-rule:nonzero;fill:rgb(6.27451%,16.470589%,28.235295%);fill-opacity:1;" d="M 118.480469 97.695312 C 118.480469 98.445312 118.480469 99.195312 118.480469 99.964844 C 116.203125 100.722656 116.203125 100.722656 114.542969 100.015625 C 114.085938 99.75 113.632812 99.484375 113.164062 99.210938 C 113.164062 98.710938 113.164062 98.210938 113.164062 97.695312 C 115.542969 96.902344 116.195312 96.988281 118.480469 97.695312 Z M 118.480469 97.695312 "/>
<path style=" stroke:none;fill-rule:nonzero;fill:rgb(77.254903%,82.745099%,87.450981%);fill-opacity:1;" d="M 47.847656 91.636719 C 48.347656 91.636719 48.851562 91.636719 49.367188 91.636719 C 49.617188 92.636719 49.867188 93.636719 50.125 94.664062 C 49.625 94.664062 49.125 94.664062 48.609375 94.664062 C 48.609375 97.414062 48.609375 100.164062 48.609375 102.996094 C 48.355469 102.996094 48.105469 102.996094 47.847656 102.996094 C 47.847656 99.246094 47.847656 95.5 47.847656 91.636719 Z M 47.847656 91.636719 "/>
<path style=" stroke:none;fill-rule:nonzero;fill:rgb(14.509805%,20.784314%,27.843139%);fill-opacity:1;" d="M 70.632812 110.570312 C 71.386719 111.070312 72.136719 111.570312 72.910156 112.082031 C 71.910156 113.332031 70.90625 114.582031 69.875 115.871094 C 69.371094 115.371094 68.871094 114.871094 68.355469 114.355469 C 69.105469 113.105469 69.859375 111.855469 70.632812 110.570312 Z M 70.632812 110.570312 "/>
<path style=" stroke:none;fill-rule:nonzero;fill:rgb(6.666667%,14.901961%,25.490198%);fill-opacity:1;" d="M 75.949219 93.152344 C 76.449219 93.152344 76.953125 93.152344 77.46875 93.152344 C 78.449219 94.257812 78.449219 94.257812 79.460938 95.707031 C 79.96875 96.417969 79.96875 96.417969 80.488281 97.144531 C 81.265625 98.453125 81.265625 98.453125 81.265625 99.964844 C 78.988281 99.210938 78.988281 99.210938 78.179688 97.835938 C 77.945312 97.289062 77.710938 96.742188 77.46875 96.179688 C 77.1875 95.617188 76.90625 95.054688 76.613281 94.476562 C 76.394531 94.039062 76.175781 93.601562 75.949219 93.152344 Z M 75.949219 93.152344 "/>
<path style=" stroke:none;fill-rule:nonzero;fill:rgb(23.529412%,46.666667%,65.490198%);fill-opacity:1;" d="M 52.40625 87.09375 C 53.15625 87.09375 53.910156 87.09375 54.683594 87.09375 C 54.398438 89.316406 54.398438 89.316406 53.925781 91.636719 C 53.171875 92.011719 53.171875 92.011719 52.40625 92.394531 C 52.117188 90.886719 51.863281 89.371094 51.644531 87.847656 C 51.894531 87.597656 52.148438 87.347656 52.40625 87.09375 Z M 52.40625 87.09375 "/>
<path style=" stroke:none;fill-rule:nonzero;fill:rgb(87.843138%,91.764706%,93.725491%);fill-opacity:1;" d="M 69.875 115.871094 C 70.125 115.871094 70.375 115.871094 70.632812 115.871094 C 70.632812 117.371094 70.632812 118.871094 70.632812 120.414062 C 69.378906 120.914062 68.125 121.414062 66.835938 121.929688 C 67.691406 119.679688 68.523438 117.890625 69.875 115.871094 Z M 69.875 115.871094 "/>
</g>
</svg>
